<?xml version="1.0" encoding="windows-1252"?>
<!-- Generator: Adobe Illustrator 19.0.0, SVG Export Plug-In . SVG Version: 6.00 Build 0)  -->
<svg version="1.1" id="Capa_1" xmlns="http://www.w3.org/2000/svg" xmlns:xlink="http://www.w3.org/1999/xlink" x="0px" y="0px" viewBox="0 0 512 512" style="enable-background:new 0 0 512 512;" xml:space="preserve">
<g>
	<g>
		<g>
			<path fill="#ffffff" d="M411.423,424.907h-56.388c-3.721,0-6.737,3.016-6.737,6.737s3.016,6.737,6.737,6.737h56.388     c3.721,0,6.737-3.016,6.737-6.737S415.144,424.907,411.423,424.907z"/>
			<path fill="#ffffff" d="M355.035,413.321h37.592c3.721,0,6.737-3.016,6.737-6.737s-3.016-6.737-6.737-6.737h-37.592     c-3.721,0-6.737,3.016-6.737,6.737S351.314,413.321,355.035,413.321z"/>
			<path fill="#ffffff" d="M411.423,374.782h-56.388c-3.721,0-6.737,3.016-6.737,6.737s3.016,6.737,6.737,6.737h56.388     c3.721,0,6.737-3.016,6.737-6.737S415.144,374.782,411.423,374.782z"/>
			<path fill="#ffffff" d="M490.318,299.828c0.05-11.705-3.64-23.119-10.533-32.579l-7.66-10.359c37.722-35.214,50.051-89.926,31.078-137.915     c-18.972-47.99-65.38-79.48-116.984-79.38c-45.845-0.138-88.086,24.838-110.058,65.074c-32.344-3.512-64.983,3.044-93.461,18.774     c-21.627,12.984-33.533,30.194-33.707,48.521c-0.001,0.053-0.03,0.097-0.03,0.15v0.258c0,0.104-0.024,0.206-0.023,0.311     c0.001,0.091,0.022,0.18,0.023,0.271v26.2l-17.859,10.716c-1.303,0.784-2.304,1.984-2.839,3.408l-4.385,11.661l-27.553,0.658     c-3.552,0.084-6.428,2.913-6.569,6.464l-0.549,13.711l-31.132,0.74c-3.552,0.084-6.428,2.913-6.569,6.464l-0.635,15.813     l-33.359,0.849c-1.163,0.032-2.298,0.362-3.296,0.961L3.268,277.17c-2.077,1.246-3.325,3.512-3.266,5.934l0.822,34.487v27.882     l-0.016,0.072c-0.001,0.034,0.017,0.063,0.016,0.097v0.12c0.033,0.221,0.077,0.441,0.133,0.657     c0.036,0.646,0.165,1.284,0.382,1.894c0.147,0.275,0.313,0.539,0.498,0.789c0.247,0.482,0.551,0.933,0.905,1.343     c0.305,0.264,0.634,0.5,0.981,0.705c0.345,0.288,0.718,0.539,1.114,0.751c0.488,0.175,0.994,0.293,1.509,0.352     c0.324,0.104,0.657,0.181,0.993,0.232l0.182,0.005l0.038,0.008l0.028-0.006l58.521,1.749h0.077l0.098,0.02     c0.086,0,0.158-0.046,0.243-0.049c0.698-0.029,1.387-0.168,2.041-0.412c0.222-0.081,0.44-0.174,0.652-0.28     c0.183-0.088,0.382-0.134,0.557-0.239l155.308-93.187c7.475,1.045,15.013,1.578,22.561,1.595     c16.851,0.008,33.608-2.512,49.711-7.476c7.398,7.453,15.723,13.926,24.77,19.259c-4.374,8.096-6.669,17.152-6.678,26.355v147.23     c-0.548,13.396,9.824,24.721,23.217,25.349h128.441c13.391-0.631,23.759-11.955,23.211-25.349V299.828z M275.752,145.206     c1.894-10.592,5.339-20.847,10.224-30.434c20.483-40.669,63.501-64.938,108.901-61.438c45.401,3.499,84.191,34.074,98.2,77.402     c14.008,43.327,0.46,90.824-34.299,120.241l0,0c-12.111,10.355-26.314,17.974-41.638,22.339     c-7.811,2.251-15.849,3.626-23.965,4.098c-2.465-3.351-2.988-7.75-1.377-11.585c54.431-3.029,96.56-48.836,95.033-103.33     s-46.156-97.87-100.672-97.845c-35.434,0.127-68.227,18.76-86.474,49.135c-6.031,10.027-10.237,21.044-12.421,32.54     c-0.913,4.828-1.453,9.718-1.618,14.629c-3.687,1.515-7.646,2.258-11.632,2.183C274.087,157.123,274.668,151.124,275.752,145.206     z M328.653,120.081L328.653,120.081c-4.101-2.334-8.362-4.375-12.752-6.107c19.154-26.301,51.371-39.733,83.536-34.826     c32.165,4.907,58.912,27.333,69.353,58.149s2.834,64.882-19.724,88.33l-18.776-25.421c-6.317-8.887-16.505-14.216-27.408-14.336     h-0.007c-10.903,0.124-21.088,5.456-27.401,14.345l-30.887,41.834c-3.45-1.888-6.766-4.01-9.926-6.352     c14.048-9.412,23.043-24.711,24.436-41.563l0.008-0.04v-27.908l0.013-0.115C359.653,148.104,348.831,131.768,328.653,120.081z      M59.548,340.56l-45.25-1.352v-14.691l45.25,1.359V340.56z M64.512,312.538l-50.368-1.507l-0.579-24.329l6.066-3.638     l37.895-0.967c3.549-0.092,6.417-2.92,6.559-6.467l0.635-15.799l31.132-0.74c3.552-0.084,6.428-2.913,6.569-6.464l0.549-13.711     l25.78-0.615c2.747-0.065,5.179-1.792,6.145-4.365l5.158-13.72l24.207-14.526c4.569,4.448,9.675,8.308,15.201,11.49     c0.491,0.285,1.03,0.527,1.528,0.806L52.877,294.854c-3.19,1.915-4.224,6.053-2.309,9.243s6.053,4.224,9.243,2.309     l136.026-81.618c3.137,1.164,6.384,2.194,9.706,3.13L64.512,312.538z M216.834,249.332L73.022,335.619v-12.47l143.813-86.291     V249.332z M186.229,205.532L186.229,205.532c-15.163-8.798-23.588-20.403-23.793-32.7v-0.523     c0.033-13.354,9.917-26.936,27.194-37.31c24.512-13.389,52.371-19.409,80.224-17.336c-2.784,6.817-4.952,13.871-6.477,21.075     c-2.307,0.756-4.531,1.744-6.638,2.948c-5.997,3.067-9.907,9.096-10.26,15.822c0.326,6.279,3.987,11.905,9.595,14.747     c3.033,1.733,6.343,2.928,9.783,3.533c2.868,0.59,5.789,0.886,8.717,0.882c7.178,0.085,14.251-1.732,20.5-5.266l0.678-0.444     c5.515-2.967,9.142-8.536,9.625-14.78c0.09-3.99-1.364-7.861-4.059-10.805c1.599-6.865,4.043-13.505,7.275-19.77     c4.592,1.671,9.037,3.719,13.291,6.124c15.61,9.041,24.024,21.004,23.756,34.141l-0.006,0.03v0.379     c-0.565,13.04-10.174,25.814-27.066,35.963c-4.587,2.722-9.365,5.11-14.296,7.145c-7.499,3.047-15.247,5.441-23.158,7.158     c-0.125,0.016-0.25,0.039-0.368,0.066C246.696,223.894,210.482,219.653,186.229,205.532z M260.883,155.519     c-0.086,1.124-0.096,2.282-0.153,3.42c-0.427-0.401-0.701-0.938-0.777-1.519C260.044,156.701,260.371,156.032,260.883,155.519z      M297.055,240.265c-21.482,7.128-44.259,9.489-66.747,6.919v-14.559c5.778,0.613,11.584,0.924,17.395,0.933     c11.933,0.002,23.833-1.237,35.51-3.697c0.151-0.02,0.296-0.049,0.441-0.079c8.796-1.891,17.409-4.546,25.743-7.934     c5.545-2.287,10.916-4.973,16.072-8.036c7.316-4.283,13.962-9.619,19.725-15.837c-1.953,11.464-10.803,22.586-25.791,31.929     c-0.217,0.161-0.414,0.273-0.842,0.539C311.755,234.459,304.547,237.751,297.055,240.265z M311.357,249.067L311.357,249.067     c3.858-1.672,7.631-3.565,11.334-5.631c4.334,3.563,8.959,6.756,13.828,9.544l-6.86,9.291     C323.116,258.518,316.983,254.092,311.357,249.067z M467.108,458.933H338.667c-5.937-0.65-10.265-5.926-9.743-11.875v-147.23     c-0.04-8.896,2.768-17.571,8.013-24.757l49.375-66.845c3.689-5.547,9.909-8.88,16.571-8.882s12.882,3.33,16.574,8.875     l19.515,26.424c-7.341,5.653-15.552,10.074-24.312,13.092c-9.887-5.099-21.933-3.26-29.848,4.557     c-0.924,0.926-1.765,1.932-2.513,3.007c-7.5,10.117-6.418,24.21,2.54,33.063c0.341,0.353,0.701,0.686,1.079,1     c4.641,4.175,10.665,6.482,16.908,6.474c6.844-0.005,13.404-2.74,18.224-7.599c0.855-0.899,1.65-1.853,2.38-2.856     c13.854-4.295,26.846-10.989,38.386-19.778l7.148,9.666c5.174,7.139,7.935,15.742,7.881,24.559h0v147.23     C477.366,453.005,473.041,458.279,467.108,458.933z"/>
		</g>
	</g>
</g>
<g>
</g>
<g>
</g>
<g>
</g>
<g>
</g>
<g>
</g>
<g>
</g>
<g>
</g>
<g>
</g>
<g>
</g>
<g>
</g>
<g>
</g>
<g>
</g>
<g>
</g>
<g>
</g>
<g>
</g>
</svg>